<svg width="227" height="138" viewBox="0 0 227 138" fill="none" xmlns="http://www.w3.org/2000/svg">
<g filter="url(#filter0_d_1_155)">
<path d="M17.72 23.296L27.192 22.016L22.648 43.392C24.696 43.2213 26.5733 42.3253 28.28 40.704C30.0293 39.0827 31.3947 37.0773 32.376 34.688C33.3573 32.2987 33.848 29.952 33.848 27.648C33.848 25.088 33.1867 22.9973 31.864 21.376C30.5413 19.7547 28.5573 18.944 25.912 18.944C20.7067 18.944 16.632 20.3093 13.688 23.04C10.7867 25.7707 9.336 29.5893 9.336 34.496C9.336 36.0747 9.48534 37.184 9.784 37.824C10.0827 38.4213 10.232 38.7627 10.232 38.848C7.928 38.848 6.2 38.3787 5.048 37.44C3.93867 36.4587 3.384 34.8587 3.384 32.64C3.384 29.9093 4.49334 27.264 6.712 24.704C8.97334 22.1013 11.8533 20.0107 15.352 18.432C18.8507 16.8107 22.3493 16 25.848 16C29.2187 16 32.0347 16.576 34.296 17.728C36.5573 18.88 38.2213 20.416 39.288 22.336C40.3973 24.2133 40.952 26.304 40.952 28.608C40.952 31.3813 40.184 34.0907 38.648 36.736C37.1547 39.3813 35 41.5573 32.184 43.264C29.368 44.928 26.1253 45.76 22.456 45.76H22.136L18.232 64H9.016L17.72 23.296Z" fill="#FFF9EC"/>
<path d="M48.8395 64.384C45.6822 64.384 43.2288 63.5733 41.4795 61.952C39.7302 60.288 38.8555 57.7067 38.8555 54.208C38.8555 51.264 39.4315 48.0213 40.5835 44.48C41.7355 40.9387 43.6128 37.888 46.2155 35.328C48.8182 32.7253 52.1248 31.424 56.1355 31.424C60.8288 31.424 63.1755 33.472 63.1755 37.568C63.1755 39.9573 62.4928 42.1547 61.1275 44.16C59.7622 46.1653 57.9488 47.7867 55.6875 49.024C53.4262 50.2187 51.0155 50.9013 48.4555 51.072C48.3702 52.352 48.3275 53.2053 48.3275 53.632C48.3275 55.7227 48.6902 57.152 49.4155 57.92C50.1408 58.6453 51.3142 59.008 52.9355 59.008C55.2395 59.008 57.2022 58.4747 58.8235 57.408C60.4875 56.3413 62.3008 54.72 64.2635 52.544H66.4395C61.7035 60.4373 55.8368 64.384 48.8395 64.384ZM48.9675 48C50.5462 47.9147 52.0395 47.36 53.4475 46.336C54.8982 45.312 56.0502 44.0107 56.9035 42.432C57.7995 40.8533 58.2475 39.1893 58.2475 37.44C58.2475 35.6907 57.7142 34.816 56.6475 34.816C55.1115 34.816 53.5968 36.16 52.1035 38.848C50.6528 41.536 49.6075 44.5867 48.9675 48Z" fill="#FFF9EC"/>
<path d="M68.602 32H77.818L76.986 35.968C78.4367 34.688 79.738 33.7067 80.89 33.024C82.0847 32.3413 83.3647 32 84.73 32C86.0953 32 87.162 32.4693 87.93 33.408C88.7407 34.3467 89.146 35.4773 89.146 36.8C89.146 38.0373 88.7407 39.1253 87.93 40.064C87.1193 41.0027 85.9887 41.472 84.538 41.472C83.5993 41.472 82.9593 41.2587 82.618 40.832C82.3193 40.3627 82.0847 39.7013 81.914 38.848C81.786 38.2933 81.658 37.888 81.53 37.632C81.402 37.376 81.1673 37.248 80.826 37.248C79.93 37.248 79.162 37.44 78.522 37.824C77.9247 38.1653 77.1353 38.784 76.154 39.68L71.034 64H61.818L68.602 32Z" fill="#FFF9EC"/>
<path d="M82.5525 80C80.5472 80 78.7978 79.3387 77.3045 78.016C75.7685 76.736 75.0005 75.0933 75.0005 73.088C75.0005 71.2533 75.4698 69.7387 76.4085 68.544C77.3472 67.3493 78.5632 66.3893 80.0565 65.664C81.5498 64.9813 83.5338 64.256 86.0085 63.488L93.7525 26.944C94.6058 22.848 96.0992 20.0107 98.2325 18.432C100.408 16.8533 102.798 16.064 105.4 16.064C107.406 16.064 109.155 16.7253 110.648 18.048C112.184 19.328 112.952 20.9707 112.952 22.976C112.952 23.9573 112.888 24.832 112.76 25.6H109.753C109.838 24.6613 109.881 24.0853 109.881 23.872C109.881 23.1893 109.646 22.656 109.176 22.272C108.707 21.888 108.131 21.696 107.449 21.696C106.553 21.696 105.678 22.1013 104.825 22.912C103.971 23.68 103.352 25.024 102.968 26.944L101.881 32H106.553L106.104 34.56H101.368L94.0085 69.12C93.1552 73.2587 91.6832 76.096 89.5925 77.632C87.5018 79.2107 85.1552 80 82.5525 80ZM81.0805 74.304C82.7872 74.304 84.0032 72.64 84.7285 69.312L85.5605 65.6C83.2992 66.368 81.5712 67.2427 80.3765 68.224C79.1392 69.248 78.5205 70.5707 78.5205 72.192C78.5205 72.704 78.7765 73.1733 79.2885 73.6C79.8005 74.0693 80.3978 74.304 81.0805 74.304Z" fill="#FFF9EC"/>
<path d="M114.527 64.384C111.37 64.384 108.916 63.5733 107.167 61.952C105.418 60.288 104.543 57.7067 104.543 54.208C104.543 51.264 105.119 48.0213 106.271 44.48C107.423 40.9387 109.3 37.888 111.903 35.328C114.506 32.7253 117.812 31.424 121.823 31.424C126.516 31.424 128.863 33.472 128.863 37.568C128.863 39.9573 128.18 42.1547 126.815 44.16C125.45 46.1653 123.636 47.7867 121.375 49.024C119.114 50.2187 116.703 50.9013 114.143 51.072C114.058 52.352 114.015 53.2053 114.015 53.632C114.015 55.7227 114.378 57.152 115.103 57.92C115.828 58.6453 117.002 59.008 118.623 59.008C120.927 59.008 122.89 58.4747 124.511 57.408C126.175 56.3413 127.988 54.72 129.951 52.544H132.127C127.391 60.4373 121.524 64.384 114.527 64.384ZM114.655 48C116.234 47.9147 117.727 47.36 119.135 46.336C120.586 45.312 121.738 44.0107 122.591 42.432C123.487 40.8533 123.935 39.1893 123.935 37.44C123.935 35.6907 123.402 34.816 122.335 34.816C120.799 34.816 119.284 36.16 117.791 38.848C116.34 41.536 115.295 44.5867 114.655 48Z" fill="#FFF9EC"/>
<path d="M139.09 64.384C135.932 64.384 133.479 63.5733 131.73 61.952C129.98 60.288 129.105 57.7067 129.105 54.208C129.105 51.264 129.682 48.0213 130.834 44.48C132.028 40.9387 133.905 37.888 136.465 35.328C139.068 32.7253 142.354 31.424 146.322 31.424C148.882 31.424 150.695 31.9787 151.762 33.088C152.871 34.1973 153.426 35.6053 153.426 37.312C153.426 38.8053 153.105 39.9573 152.465 40.768C151.825 41.5787 151.015 41.984 150.034 41.984C149.308 41.984 148.562 41.728 147.794 41.216C148.306 39.808 148.561 38.5493 148.561 37.44C148.561 36.6293 148.412 35.9893 148.113 35.52C147.815 35.0507 147.367 34.816 146.77 34.816C145.49 34.816 144.21 35.8613 142.93 37.952C141.65 40.0427 140.604 42.5813 139.794 45.568C138.983 48.5547 138.577 51.2427 138.577 53.632C138.577 55.7227 138.94 57.152 139.665 57.92C140.391 58.6453 141.564 59.008 143.186 59.008C145.49 59.008 147.452 58.4747 149.074 57.408C150.738 56.3413 152.551 54.72 154.514 52.544H156.689C151.953 60.4373 146.087 64.384 139.09 64.384Z" fill="#FFF9EC"/>
<path d="M160.516 64.384C158.34 64.384 156.719 63.7227 155.652 62.4C154.628 61.0773 154.116 59.328 154.116 57.152C154.116 56.0427 154.244 54.912 154.5 53.76L158.596 34.56H156.484L156.996 32H159.108L161.028 23.168L170.5 21.888C170.116 23.5093 169.903 24.4693 169.86 24.768C169.561 25.9627 169.049 28.3733 168.324 32H172.164L171.652 34.56H167.812L163.716 53.76C163.503 54.6987 163.396 55.4453 163.396 56C163.396 57.536 164.143 58.304 165.636 58.304C166.404 58.304 166.959 58.24 167.3 58.112C166.447 60.5867 165.444 62.2507 164.292 63.104C163.14 63.9573 161.881 64.384 160.516 64.384Z" fill="#FFF9EC"/>
</g>
<g filter="url(#filter1_d_1_155)">
<path fill-rule="evenodd" clip-rule="evenodd" d="M18.3466 20.1841C18.008 20.3125 17.6777 20.4509 17.3556 20.5993C17.0789 20.7268 16.8083 20.8616 16.5438 21.0038C16.5354 21.0083 16.527 21.0129 16.5186 21.0174C16.0299 21.2814 15.5621 21.5706 15.1152 21.885C15.0925 21.9009 15.0698 21.917 15.0473 21.9331C14.5702 22.273 14.1171 22.642 13.688 23.04C10.7867 25.7707 9.336 29.5893 9.336 34.496C9.336 34.9815 9.35013 35.4226 9.37838 35.8194C9.44198 36.7126 9.57719 37.3808 9.784 37.824C10.0827 38.4213 10.232 38.7627 10.232 38.848C9.44258 38.848 8.72078 38.7929 8.06659 38.6827C8.03662 38.6777 8.0068 38.6725 7.97711 38.6672C7.55136 38.5915 7.15481 38.492 6.78744 38.3687C6.10768 38.1406 5.52787 37.831 5.048 37.44C3.93867 36.4587 3.384 34.8587 3.384 32.64C3.384 29.9093 4.49334 27.264 6.712 24.704C8.57122 22.5641 10.8486 20.7704 13.5443 19.3227C14.1273 19.0096 14.7299 18.7127 15.352 18.432C18.8507 16.8107 22.3493 16 25.848 16C25.8694 16 25.8907 16 25.912 16.0001C26.5756 16.0015 27.2175 16.0254 27.8379 16.0716C30.3424 16.2584 32.4951 16.8106 34.296 17.728C36.5573 18.88 38.2213 20.416 39.288 22.336C40.3973 24.2133 40.952 26.304 40.952 28.608C40.952 31.3813 40.184 34.0907 38.648 36.736C37.1547 39.3813 35 41.5573 32.184 43.264C30.5446 44.2328 28.7605 44.9195 26.8319 45.3243C25.5653 45.5901 24.2364 45.7343 22.8451 45.7569C22.7159 45.759 22.5862 45.76 22.456 45.76H22.136L18.232 64H9.016L17.72 23.296L27.192 22.016L22.648 43.392C23.7696 43.2985 24.84 42.9875 25.8593 42.4589C25.8796 42.4484 25.8999 42.4378 25.9202 42.4271C26.74 41.9941 27.5266 41.4197 28.28 40.704C30.0293 39.0827 31.3947 37.0773 32.376 34.688C33.3573 32.2987 33.848 29.952 33.848 27.648C33.848 25.088 33.1867 22.9973 31.864 21.376C30.941 20.2446 29.696 19.508 28.129 19.1661C27.9351 19.1238 27.7363 19.0875 27.5325 19.0573C27.4295 19.042 27.3251 19.0283 27.2196 19.0161C26.8033 18.968 26.3675 18.944 25.912 18.944C25.8906 18.944 25.8693 18.944 25.848 18.9441C23.0103 18.9502 20.5098 19.3635 18.3466 20.1841ZM29.889 23.7569C30.4815 24.6895 30.848 25.9351 30.848 27.648C30.848 29.5164 30.4517 31.4768 29.6009 33.5482C28.9036 35.2461 27.9971 36.6706 26.8922 37.8545L29.889 23.7569ZM13.624 28.1044L12.3394 34.1117C12.3823 31.7012 12.8308 29.7252 13.624 28.1044ZM10.6926 41.8129C10.5425 41.836 10.3886 41.848 10.232 41.848C7.59769 41.848 5.06511 41.3237 3.15298 39.7657C3.12155 39.7401 3.09065 39.7139 3.06028 39.687C1.04255 37.9021 0.384003 35.2866 0.384003 32.64C0.384003 29.0259 1.87147 25.7086 4.44494 22.7392L4.44739 22.7364C7.02052 19.7749 10.2618 17.4396 14.1043 15.7037C17.9531 13.9223 21.8756 13 25.848 13C29.5431 13 32.8595 13.6293 35.6578 15.0549C38.3534 16.4281 40.4908 18.3418 41.8908 20.8438C43.2754 23.201 43.952 25.8122 43.952 28.608C43.952 30.5633 43.6342 32.474 43.0181 34.3325C43.3665 33.9451 43.7283 33.5667 44.1034 33.1975C47.3205 29.9852 51.4123 28.424 56.1355 28.424C58.8519 28.424 61.4495 29.0079 63.3881 30.6997C64.2193 31.4252 64.8389 32.2736 65.2801 33.2041L65.6672 31.3778C65.9611 29.9916 67.1849 29 68.602 29H77.818C78.6971 29 79.5306 29.3855 80.0997 30.0522C81.5489 29.355 83.1028 29 84.73 29C86.658 29 88.4501 29.6347 89.8206 31.0274L90.8156 26.3321C90.8159 26.3305 90.8162 26.3289 90.8166 26.3272C91.7379 21.9083 93.464 18.2286 96.448 16.0205L96.4708 16.0037C99.141 14.0665 102.143 13.064 105.4 13.064C108.12 13.064 110.566 13.9807 112.604 15.7726C114.804 17.6215 115.952 20.0986 115.952 22.976C115.952 24.0821 115.881 25.1266 115.72 26.0932C115.479 27.5398 114.227 28.6 112.76 28.6H109.753C108.91 28.6 108.106 28.2454 107.537 27.623C106.969 27.0006 106.689 26.1678 106.765 25.3284C106.769 25.2842 106.773 25.241 106.777 25.1987C106.598 25.4036 106.212 26.0254 105.91 27.5323C105.907 27.5466 105.904 27.5609 105.901 27.5751L105.595 29H106.553C107.439 29 108.279 29.3917 108.849 30.0702C109.419 30.7486 109.66 31.6443 109.508 32.5171L109.302 33.6917C109.462 33.5254 109.625 33.3608 109.79 33.198C113.008 29.9854 117.099 28.424 121.823 28.424C124.539 28.424 127.137 29.0079 129.076 30.6997C130.732 32.1453 131.548 34.0791 131.787 36.1783C132.558 35.1311 133.411 34.1401 134.344 33.2067C137.556 29.9947 141.626 28.424 146.322 28.424C149.171 28.424 151.992 29.0172 153.902 30.9862C153.971 31.0558 154.039 31.1261 154.105 31.1972C154.435 30.0068 155.464 29.1418 156.687 29.0159L158.096 22.5307C158.365 21.2976 159.376 20.364 160.626 20.195L170.098 18.915C171.078 18.7827 172.059 19.1411 172.723 19.8734C173.387 20.6056 173.647 21.6178 173.419 22.5794C173.229 23.3844 173.083 24.0144 172.981 24.4748C172.929 24.7054 172.891 24.8849 172.864 25.0179C172.843 25.1224 172.833 25.175 172.83 25.1908C172.829 25.1975 172.829 25.1976 172.83 25.1923C172.815 25.2943 172.795 25.3956 172.77 25.4956C172.598 26.1863 172.34 27.3488 171.996 29H172.164C173.063 29 173.914 29.403 174.484 30.098C175.054 30.7931 175.282 31.707 175.106 32.5884L174.594 35.1484C174.313 36.5506 173.082 37.56 171.652 37.56H170.24L166.65 54.3859L166.641 54.4249C166.57 54.7391 166.518 55.0046 166.481 55.226C167.507 54.9344 168.619 55.2096 169.393 55.9625C170.225 56.7731 170.515 57.9915 170.136 59.09C169.226 61.728 167.976 64.1087 166.078 65.5147C164.437 66.7303 162.558 67.384 160.516 67.384C157.709 67.384 155.106 66.5024 153.317 64.2833C153.304 64.2678 153.292 64.2522 153.28 64.2365C152.868 63.7051 152.522 63.1401 152.236 62.5471C148.434 65.6903 144.056 67.384 139.09 67.384C135.427 67.384 132.154 66.436 129.69 64.1523L129.662 64.1257C129.049 63.5423 128.526 62.8974 128.084 62.1998C124.188 65.5653 119.673 67.384 114.527 67.384C110.864 67.384 107.592 66.436 105.128 64.1523L105.099 64.1257C102.53 61.6817 101.543 58.1558 101.543 54.208C101.543 50.8781 102.193 47.3174 103.418 43.552C104.118 41.3997 105.061 39.3991 106.244 37.5568C106.198 37.5589 106.151 37.56 106.104 37.56H103.797L96.9467 69.7258C96.946 69.7293 96.9453 69.7327 96.9446 69.7362C96.0312 74.1589 94.3399 77.8577 91.3851 80.0376C88.7811 81.9991 85.8059 83 82.5525 83C79.8334 83 77.3873 82.0833 75.3488 80.2913C73.1494 78.4424 72.0005 75.9653 72.0005 73.088C72.0005 70.7252 72.6146 68.5168 74.0495 66.6905C75.2944 65.1062 76.882 63.8707 78.7458 62.9655C78.7668 62.9553 78.788 62.9453 78.8092 62.9356C80.0839 62.3528 81.6325 61.7632 83.4344 61.1637L87.0504 44.1C86.2525 44.3533 85.4062 44.472 84.538 44.472C83.3204 44.472 81.4893 44.2234 80.2754 42.7061C80.2079 42.6217 80.145 42.5338 80.087 42.4426C79.7794 41.9593 79.5419 41.4313 79.3558 40.887C79.2163 40.9959 79.0595 41.1233 78.8848 41.2712L73.9697 64.618C73.6774 66.0063 72.4527 67 71.034 67H61.818C60.9132 67 60.0567 66.5916 59.4871 65.8886C59.2023 65.5372 59.0045 65.1309 58.9013 64.7019C55.8661 66.457 52.5135 67.384 48.8395 67.384C45.1766 67.384 41.9042 66.436 39.4402 64.1523L39.4119 64.1257C36.8425 61.6817 35.8555 58.1558 35.8555 54.208C35.8555 50.8781 36.5058 47.3174 37.7307 43.552C37.8624 43.1469 38.0027 42.7473 38.1516 42.3531C36.8691 43.6678 35.3943 44.8264 33.7389 45.8296L33.7102 45.8468C30.9564 47.474 27.8957 48.4011 24.5802 48.6741L21.1656 64.6279C20.8694 66.0114 19.6469 67 18.232 67H9.016C8.11025 67 7.25299 66.5908 6.68341 65.8865C6.11383 65.1823 5.89293 64.2584 6.08233 63.3727L10.6926 41.8129ZM59.4427 60.7389C59.7683 60.4906 60.0902 60.2296 60.4086 59.9559C60.4189 59.947 60.4293 59.9381 60.4396 59.9292C60.4487 59.9214 60.4577 59.9136 60.4667 59.9057C61.4464 59.0575 62.3915 58.0888 63.3021 56.9996L61.818 64H71.034L76.154 39.68C76.4397 39.4191 76.7091 39.1818 76.9623 38.9679C77.5787 38.4473 78.0986 38.066 78.522 37.824C78.5442 37.8107 78.5665 37.7976 78.589 37.7848C79.0197 37.5387 79.5067 37.3773 80.0502 37.3004C80.2971 37.2655 80.5557 37.248 80.826 37.248C81.1673 37.248 81.402 37.376 81.53 37.632C81.658 37.888 81.786 38.2933 81.914 38.848C82.0847 39.7013 82.3193 40.3627 82.618 40.832C82.9593 41.2587 83.5993 41.472 84.538 41.472C85.9696 41.472 87.0895 41.0149 87.8978 40.1008C87.9086 40.0886 87.9193 40.0764 87.93 40.064C88.7407 39.1253 89.146 38.0373 89.146 36.8C89.146 36.2426 89.074 35.7192 88.93 35.23C88.7323 34.5584 88.399 33.9511 87.93 33.408C87.162 32.4693 86.0953 32 84.73 32C83.3647 32 82.0847 32.3413 80.89 33.024C80.8062 33.0736 80.7217 33.1249 80.6363 33.1777C80.0419 33.5454 79.4093 33.9896 78.7384 34.5105C78.278 34.8679 77.7995 35.2614 77.3031 35.6909C77.2897 35.7025 77.2764 35.7141 77.263 35.7257C77.1713 35.8052 77.0789 35.886 76.986 35.968L77.818 32H68.602L64.2415 52.5684C62.8859 54.0693 61.6017 55.3053 60.3887 56.2764C59.8531 56.7053 59.3313 57.0825 58.8235 57.408C58.7572 57.4516 58.6904 57.4943 58.623 57.5361C57.0412 58.5174 55.1453 59.008 52.9355 59.008C51.3142 59.008 50.1408 58.6453 49.4155 57.92C48.6902 57.152 48.3275 55.7227 48.3275 53.632C48.3275 53.2053 48.3702 52.352 48.4555 51.072C48.8441 51.0461 49.2293 51.0084 49.611 50.9589C50.1499 50.889 50.682 50.7956 51.2072 50.6787C52.7607 50.3328 54.2541 49.7813 55.6875 49.024C57.9488 47.7867 59.7622 46.1653 61.1275 44.16C62.4928 42.1547 63.1755 39.9573 63.1755 37.568C63.1755 33.472 60.8288 31.424 56.1355 31.424C52.1248 31.424 48.8182 32.7253 46.2155 35.328C43.6128 37.888 41.7355 40.9387 40.5835 44.48C39.4315 48.0213 38.8555 51.264 38.8555 54.208C38.8555 57.7067 39.7302 60.288 41.4795 61.952C43.2288 63.5733 45.6822 64.384 48.8395 64.384C52.722 64.384 56.2564 63.169 59.4427 60.7389ZM56.9035 42.432C57.7995 40.8533 58.2475 39.1893 58.2475 37.44C58.2475 35.6907 57.7142 34.816 56.6475 34.816C55.1115 34.816 53.5968 36.16 52.1035 38.848C51.1114 40.6863 50.3089 42.6942 49.696 44.8717C49.4126 45.8782 49.1698 46.921 48.9675 48C49.0696 47.9945 49.1714 47.987 49.2728 47.9775C49.6903 47.9387 50.1016 47.8665 50.507 47.761C51.0909 47.6091 51.6623 47.3881 52.2211 47.0981C52.6368 46.8823 53.0456 46.6283 53.4475 46.336C54.8982 45.312 56.0502 44.0107 56.9035 42.432ZM56.7335 37.8052C56.7335 37.8056 56.7282 37.8076 56.7178 37.8098C56.7283 37.8058 56.7335 37.8047 56.7335 37.8052ZM51.3278 53.718C51.3327 54.5627 51.41 55.1506 51.5074 55.5342C51.542 55.6708 51.5748 55.7644 51.5992 55.8243C51.6304 55.8376 51.6718 55.8532 51.7254 55.8698C51.9502 55.9393 52.3351 56.008 52.9355 56.008C54.765 56.008 56.1285 55.59 57.1747 54.9018L57.2045 54.8824C58.4256 54.0996 59.8504 52.8792 61.4771 51.1427L62.2216 47.6307C60.7986 49.2393 59.0925 50.5806 57.1275 51.6558C57.1147 51.6628 57.1018 51.6697 57.0889 51.6766C55.2553 52.6453 53.3319 53.3264 51.3278 53.718ZM86.0085 63.488C85.6474 63.6001 85.2967 63.7112 84.9565 63.8215C82.9652 64.4668 81.3319 65.081 80.0565 65.664C79.6267 65.8728 79.2199 66.101 78.836 66.3486C78.8335 66.3502 78.831 66.3519 78.8285 66.3535C77.8819 66.9653 77.0752 67.6954 76.4085 68.544C76.3517 68.6163 76.2966 68.6898 76.2432 68.7644C75.4147 69.9232 75.0005 71.3644 75.0005 73.088C75.0005 75.0933 75.7685 76.736 77.3045 78.016C78.7978 79.3387 80.5472 80 82.5525 80C85.1552 80 87.5018 79.2107 89.5925 77.632C91.6832 76.096 93.1552 73.2587 94.0085 69.12L101.368 34.56H106.104L106.553 32H101.881L102.968 26.944C103.353 25.024 103.971 23.68 104.825 22.912C105.678 22.1013 106.553 21.696 107.449 21.696C108.131 21.696 108.707 21.888 109.176 22.272C109.446 22.4923 109.638 22.7617 109.753 23.0802C109.838 23.317 109.881 23.5809 109.881 23.872C109.881 24.0853 109.838 24.6613 109.753 25.6H112.76C112.764 25.5818 112.767 25.5636 112.769 25.5453C112.892 24.7905 112.952 23.9341 112.952 22.976C112.952 20.9707 112.185 19.328 110.648 18.048C109.155 16.7253 107.406 16.064 105.4 16.064C102.798 16.064 100.409 16.8533 98.2325 18.432C96.0992 20.0107 94.6058 22.848 93.7525 26.944L86.0085 63.488ZM82.1622 67.045C83.1153 66.5274 84.2481 66.0457 85.5605 65.6L84.7285 69.312C84.0032 72.64 82.7872 74.304 81.0805 74.304C80.3978 74.304 79.8005 74.0693 79.2885 73.6C78.7765 73.1733 78.5205 72.704 78.5205 72.192C78.5205 71.5036 78.632 70.8691 78.8551 70.2884C79.1574 69.5014 79.6645 68.8132 80.3765 68.224C80.573 68.0626 80.784 67.904 81.0094 67.7484C81.0242 67.7381 81.0391 67.7279 81.054 67.7177C81.3916 67.4871 81.761 67.2628 82.1622 67.045ZM129.393 57.3803C129.593 58.3775 129.896 59.2656 130.304 60.0445C130.687 60.7768 131.162 61.4126 131.73 61.952C133.479 63.5733 135.932 64.384 139.09 64.384C143.369 64.384 147.225 62.908 150.659 59.9559C150.669 59.947 150.679 59.9381 150.69 59.9292C150.699 59.9214 150.708 59.9136 150.717 59.9057C150.906 59.7416 151.094 59.5731 151.281 59.3999C152.015 58.7202 152.73 57.9709 153.424 57.152C153.666 56.8665 153.905 56.5725 154.143 56.2701C154.125 56.5656 154.116 56.8595 154.116 57.152C154.116 57.1788 154.116 57.2055 154.116 57.2322C154.123 58.3949 154.277 59.4347 154.579 60.3514C154.833 61.121 155.19 61.8038 155.652 62.4C156.719 63.7227 158.34 64.384 160.516 64.384C161.881 64.384 163.14 63.9573 164.292 63.104C164.848 62.6923 165.369 62.0918 165.855 61.3026C166.377 60.4562 166.858 59.3926 167.3 58.112C166.959 58.24 166.404 58.304 165.636 58.304C165.024 58.304 164.537 58.175 164.176 57.9169C163.656 57.5453 163.396 56.9064 163.396 56C163.396 55.4453 163.503 54.6987 163.716 53.76L167.812 34.56H171.652L172.164 32H168.324C168.354 31.8513 168.383 31.7046 168.412 31.56C168.601 30.6204 168.774 29.767 168.932 29C169.306 27.1885 169.596 25.8584 169.801 25.0098C169.821 24.9243 169.841 24.8437 169.86 24.768C169.903 24.4693 170.116 23.5093 170.5 21.888L161.028 23.168L159.108 32H156.996L156.484 34.56H158.596L154.759 52.544H154.514C154.197 52.8953 153.884 53.232 153.575 53.5544C153.573 53.5567 153.57 53.5589 153.568 53.5612C152.739 54.4257 151.938 55.1861 151.165 55.8425C150.443 56.455 149.746 56.9768 149.074 57.408C149.007 57.4516 148.94 57.4943 148.873 57.5361C147.291 58.5174 145.395 59.008 143.186 59.008C141.564 59.008 140.391 58.6453 139.665 57.92C138.94 57.152 138.577 55.7227 138.577 53.632C138.577 51.2427 138.983 48.5547 139.794 45.568C140.604 42.5813 141.65 40.0427 142.93 37.952C144.21 35.8613 145.49 34.816 146.77 34.816C147.367 34.816 147.815 35.0507 148.113 35.52C148.412 35.9893 148.561 36.6293 148.561 37.44C148.561 38.5493 148.305 39.808 147.794 41.216C148.514 41.696 149.215 41.951 149.897 41.981C149.943 41.983 149.988 41.984 150.034 41.984C150.276 41.984 150.508 41.9592 150.73 41.9096C151.405 41.7587 151.984 41.3782 152.465 40.768C153.105 39.9573 153.426 38.8053 153.426 37.312C153.426 35.6053 152.871 34.1973 151.762 33.088C150.695 31.9787 148.882 31.424 146.322 31.424C142.354 31.424 139.068 32.7253 136.465 35.328C133.906 37.888 132.028 40.9387 130.834 44.48C130.257 46.2524 129.825 47.95 129.537 49.5727C129.422 50.2213 129.329 50.858 129.26 51.4827C129.246 51.617 129.232 51.7507 129.219 51.8839C129.169 52.4125 129.135 52.9323 129.118 53.4434C128.867 53.7078 128.618 53.9627 128.371 54.208C127.622 54.9539 126.896 55.6117 126.194 56.1815C125.617 56.6498 125.056 57.0587 124.511 57.408C124.445 57.4516 124.378 57.4943 124.31 57.5361C122.729 58.5174 120.833 59.008 118.623 59.008C117.002 59.008 115.828 58.6453 115.103 57.92C114.378 57.152 114.015 55.7227 114.015 53.632C114.015 53.2053 114.058 52.352 114.143 51.072C114.532 51.0461 114.917 51.0084 115.298 50.9589C115.837 50.889 116.369 50.7956 116.895 50.6787C118.448 50.3328 119.942 49.7813 121.375 49.024C123.636 47.7867 125.45 46.1653 126.815 44.16C128.18 42.1547 128.863 39.9573 128.863 37.568C128.863 33.472 126.516 31.424 121.823 31.424C117.812 31.424 114.506 32.7253 111.903 35.328C109.3 37.888 107.423 40.9387 106.271 44.48C105.119 48.0213 104.543 51.264 104.543 54.208C104.543 57.7067 105.418 60.288 107.167 61.952C108.916 63.5733 111.37 64.384 114.527 64.384C118.806 64.384 122.663 62.908 126.096 59.9559C126.106 59.947 126.117 59.9381 126.127 59.9292C126.136 59.9214 126.145 59.9136 126.154 59.9057C126.369 59.7201 126.581 59.5288 126.792 59.3316C127.645 58.5352 128.471 57.6445 129.269 56.6597C129.305 56.9059 129.346 57.1461 129.393 57.3803ZM122.591 42.432C123.487 40.8533 123.935 39.1893 123.935 37.44C123.935 35.6907 123.402 34.816 122.335 34.816C120.799 34.816 119.284 36.16 117.791 38.848C116.799 40.6863 115.996 42.6942 115.383 44.8717C115.1 45.8782 114.857 46.921 114.655 48C114.757 47.9945 114.859 47.987 114.96 47.9775C115.378 47.9387 115.789 47.8665 116.194 47.761C116.778 47.6091 117.35 47.3881 117.909 47.0981C118.324 46.8823 118.733 46.6283 119.135 46.336C120.586 45.312 121.738 44.0107 122.591 42.432ZM122.421 37.8052C122.421 37.8056 122.416 37.8076 122.405 37.8098C122.416 37.8058 122.421 37.8047 122.421 37.8052ZM117.015 53.718C117.02 54.5627 117.098 55.1506 117.195 55.5342C117.23 55.6708 117.262 55.7644 117.287 55.8243C117.318 55.8376 117.359 55.8532 117.413 55.8698C117.638 55.9393 118.023 56.008 118.623 56.008C120.452 56.008 121.816 55.59 122.862 54.9018L122.892 54.8824C123.862 54.2608 124.96 53.3633 126.185 52.1505C126.265 51.1093 126.403 50.0473 126.598 48.9651C125.473 49.9962 124.209 50.893 122.815 51.6558C122.802 51.6628 122.789 51.6697 122.776 51.6766C120.943 52.6453 119.019 53.3264 117.015 53.718ZM141.849 55.8243C141.88 55.8376 141.922 55.8532 141.975 55.8698C142.2 55.9393 142.585 56.008 143.186 56.008C145.015 56.008 146.378 55.59 147.425 54.9018L147.454 54.8824C148.761 54.0451 150.3 52.7071 152.07 50.7724L153.544 43.8612C152.549 44.5835 151.359 44.984 150.034 44.984C148.573 44.984 147.256 44.4635 146.129 43.7122C145.114 43.035 144.623 41.8225 144.847 40.6534C144.018 42.2393 143.292 44.1306 142.689 46.3539C141.928 49.1554 141.577 51.5728 141.577 53.632C141.577 54.523 141.657 55.1377 141.757 55.5342C141.792 55.6708 141.825 55.7644 141.849 55.8243ZM141.772 55.7847C141.769 55.7833 141.768 55.7824 141.768 55.782C141.767 55.7815 141.769 55.7822 141.772 55.7847Z" fill="#443152"/>
</g>
<g filter="url(#filter2_d_1_155)">
<path d="M37.72 78.296L47.192 77.016L42.648 98.392C44.696 98.2213 46.5733 97.3253 48.28 95.704C50.0293 94.0827 51.3947 92.0773 52.376 89.688C53.3573 87.2987 53.848 84.952 53.848 82.648C53.848 80.088 53.1867 77.9973 51.864 76.376C50.5413 74.7547 48.5573 73.944 45.912 73.944C40.7067 73.944 36.632 75.3093 33.688 78.04C30.7867 80.7707 29.336 84.5893 29.336 89.496C29.336 91.0747 29.4853 92.184 29.784 92.824C30.0827 93.4213 30.232 93.7627 30.232 93.848C27.928 93.848 26.2 93.3787 25.048 92.44C23.9387 91.4587 23.384 89.8587 23.384 87.64C23.384 84.9093 24.4933 82.264 26.712 79.704C28.9733 77.1013 31.8533 75.0107 35.352 73.432C38.8507 71.8107 42.3493 71 45.848 71C49.2187 71 52.0347 71.576 54.296 72.728C56.5573 73.88 58.2213 75.416 59.288 77.336C60.3973 79.2133 60.952 81.304 60.952 83.608C60.952 86.3813 60.184 89.0907 58.648 91.736C57.1547 94.3813 55 96.5573 52.184 98.264C49.368 99.928 46.1253 100.76 42.456 100.76H42.136L38.232 119H29.016L37.72 78.296Z" fill="#FFF9EC"/>
<path d="M69.0315 119.256C65.8742 119.256 63.3782 118.445 61.5435 116.824C59.7088 115.203 58.7915 112.643 58.7915 109.144C58.7915 106.243 59.3888 103.021 60.5835 99.48C61.7782 95.9387 63.6982 92.888 66.3435 90.328C68.9888 87.7253 72.3168 86.424 76.3275 86.424C81.7888 86.424 84.5195 89.8373 84.5195 96.664V96.728C84.6475 96.7707 84.8822 96.792 85.2235 96.792C86.6315 96.792 88.2528 96.4293 90.0875 95.704C91.9222 94.936 93.5862 94.0187 95.0795 92.952L95.6555 94.68C94.4182 96.0027 92.7968 97.1333 90.7915 98.072C88.8288 98.968 86.6742 99.608 84.3275 99.992C83.9862 103.875 83.1115 107.267 81.7035 110.168C80.2955 113.069 78.4822 115.309 76.2635 116.888C74.0448 118.467 71.6342 119.256 69.0315 119.256ZM71.5915 113.496C72.6155 113.496 73.6395 112.92 74.6635 111.768C75.6875 110.573 76.5835 108.973 77.3515 106.968C78.1195 104.92 78.6742 102.659 79.0155 100.184C77.8635 99.928 77.2875 99.032 77.2875 97.496C77.2875 95.7467 77.9488 94.5947 79.2715 94.04C79.1862 92.632 78.9728 91.672 78.6315 91.16C78.2902 90.6053 77.6928 90.328 76.8395 90.328C75.4315 90.328 74.0662 91.352 72.7435 93.4C71.4208 95.448 70.3542 97.9013 69.5435 100.76C68.7328 103.619 68.3275 106.136 68.3275 108.312C68.3275 110.36 68.5622 111.747 69.0315 112.472C69.5008 113.155 70.3542 113.496 71.5915 113.496Z" fill="#FFF9EC"/>
<path d="M92.6765 84.632H101.893L100.868 89.432C103.002 87.5973 105.498 86.68 108.356 86.68C110.746 86.68 112.645 87.4693 114.053 89.048C115.461 90.6267 116.165 93.208 116.165 96.792C116.165 100.163 115.674 103.576 114.693 107.032C113.711 110.445 112.047 113.368 109.701 115.8C107.354 118.189 104.261 119.384 100.421 119.384C97.6898 119.384 95.8765 118.616 94.9805 117.08L91.6525 132.696L81.9885 135L92.6765 84.632ZM98.4365 113.816C100.485 113.816 102.17 112.856 103.493 110.936C104.858 109.016 105.839 106.733 106.437 104.088C107.077 101.4 107.396 98.904 107.396 96.6C107.396 93.0587 106.33 91.288 104.197 91.288C103.429 91.288 102.639 91.5653 101.828 92.12C101.06 92.6747 100.378 93.4427 99.7805 94.424L96.0045 112.344C96.3458 113.325 97.1565 113.816 98.4365 113.816Z" fill="#FFF9EC"/>
<path d="M126.902 119.384C123.745 119.384 121.291 118.573 119.542 116.952C117.793 115.288 116.918 112.707 116.918 109.208C116.918 106.264 117.494 103.021 118.646 99.48C119.841 95.9387 121.718 92.888 124.278 90.328C126.881 87.7253 130.166 86.424 134.134 86.424C136.694 86.424 138.507 86.9787 139.574 88.088C140.683 89.1973 141.238 90.6053 141.238 92.312C141.238 93.8053 140.918 94.9573 140.278 95.768C139.638 96.5787 138.827 96.984 137.846 96.984C137.121 96.984 136.374 96.728 135.606 96.216C136.118 94.808 136.374 93.5493 136.374 92.44C136.374 91.6293 136.225 90.9893 135.926 90.52C135.627 90.0507 135.179 89.816 134.582 89.816C133.302 89.816 132.022 90.8613 130.742 92.952C129.462 95.0427 128.417 97.5813 127.606 100.568C126.795 103.555 126.39 106.243 126.39 108.632C126.39 110.723 126.753 112.152 127.478 112.92C128.203 113.645 129.377 114.008 130.998 114.008C133.302 114.008 135.265 113.475 136.886 112.408C138.55 111.341 140.363 109.72 142.326 107.544H144.502C139.766 115.437 133.899 119.384 126.902 119.384Z" fill="#FFF9EC"/>
<path d="M151.656 119.256C148.499 119.256 146.003 118.445 144.169 116.824C142.334 115.203 141.416 112.643 141.416 109.144C141.416 106.243 142.014 103.021 143.209 99.48C144.403 95.9387 146.323 92.888 148.968 90.328C151.614 87.7253 154.942 86.424 158.952 86.424C164.414 86.424 167.145 89.8373 167.145 96.664V96.728C167.273 96.7707 167.507 96.792 167.848 96.792C169.256 96.792 170.878 96.4293 172.712 95.704C174.547 94.936 176.211 94.0187 177.704 92.952L178.281 94.68C177.043 96.0027 175.422 97.1333 173.417 98.072C171.454 98.968 169.299 99.608 166.952 99.992C166.611 103.875 165.737 107.267 164.329 110.168C162.921 113.069 161.107 115.309 158.889 116.888C156.67 118.467 154.259 119.256 151.656 119.256ZM154.217 113.496C155.241 113.496 156.264 112.92 157.288 111.768C158.312 110.573 159.209 108.973 159.977 106.968C160.745 104.92 161.299 102.659 161.641 100.184C160.489 99.928 159.913 99.032 159.913 97.496C159.913 95.7467 160.574 94.5947 161.896 94.04C161.811 92.632 161.598 91.672 161.257 91.16C160.915 90.6053 160.318 90.328 159.465 90.328C158.057 90.328 156.691 91.352 155.368 93.4C154.046 95.448 152.979 97.9013 152.169 100.76C151.358 103.619 150.952 106.136 150.952 108.312C150.952 110.36 151.187 111.747 151.656 112.472C152.126 113.155 152.979 113.496 154.217 113.496Z" fill="#FFF9EC"/>
<path d="M174.79 87H184.005L183.174 90.968C184.624 89.688 185.925 88.7067 187.077 88.024C188.272 87.3413 189.552 87 190.917 87C192.283 87 193.349 87.4693 194.117 88.408C194.928 89.3467 195.333 90.4773 195.333 91.8C195.333 93.0373 194.928 94.1253 194.117 95.064C193.307 96.0027 192.176 96.472 190.725 96.472C189.787 96.472 189.147 96.2587 188.805 95.832C188.507 95.3627 188.272 94.7013 188.102 93.848C187.974 93.2933 187.845 92.888 187.717 92.632C187.589 92.376 187.355 92.248 187.014 92.248C186.118 92.248 185.35 92.44 184.71 92.824C184.112 93.1653 183.323 93.784 182.342 94.68L177.221 119H168.005L174.79 87Z" fill="#FFF9EC"/>
<path d="M216.516 119.384C214.255 119.384 212.612 118.701 211.588 117.336C210.564 115.971 210.052 114.243 210.052 112.152C210.052 111.256 210.159 110.253 210.372 109.144C210.585 107.992 210.799 106.883 211.012 105.816C211.268 104.749 211.439 104.067 211.524 103.768C211.865 102.275 212.185 100.803 212.484 99.352C212.783 97.9013 212.932 96.728 212.932 95.832C212.932 93.656 212.164 92.568 210.628 92.568C209.519 92.568 208.537 93.1227 207.684 94.232C206.831 95.2987 206.148 96.7067 205.636 98.456L201.284 119H192.068L198.852 87H208.068L207.364 90.328C209.497 87.9387 211.993 86.744 214.852 86.744C217.028 86.744 218.756 87.3413 220.036 88.536C221.316 89.7307 221.956 91.544 221.956 93.976C221.956 95.2133 221.807 96.6 221.508 98.136C221.209 99.6293 220.783 101.464 220.228 103.64C219.887 104.963 219.567 106.264 219.268 107.544C219.012 108.781 218.884 109.763 218.884 110.488C218.884 111.341 219.076 112.003 219.46 112.472C219.844 112.941 220.505 113.176 221.444 113.176C222.468 113.176 223.172 113.048 223.556 112.792C223.3 114.968 222.511 116.611 221.188 117.72C219.908 118.829 218.351 119.384 216.516 119.384Z" fill="#FFF9EC"/>
</g>
<g filter="url(#filter3_d_1_155)">
<path fill-rule="evenodd" clip-rule="evenodd" d="M38.3466 75.1841C38.008 75.3125 37.6777 75.4509 37.3556 75.5993C37.0789 75.7268 36.8083 75.8616 36.5438 76.0038C36.5354 76.0083 36.527 76.0129 36.5186 76.0174C36.0299 76.2814 35.5621 76.5706 35.1152 76.885C35.0925 76.9009 35.0698 76.917 35.0473 76.9331C34.5702 77.273 34.1171 77.642 33.688 78.04C30.7867 80.7707 29.336 84.5893 29.336 89.496C29.336 89.9815 29.3501 90.4226 29.3784 90.8194C29.442 91.7126 29.5772 92.3808 29.784 92.824C30.0827 93.4213 30.232 93.7627 30.232 93.848C29.4426 93.848 28.7208 93.7929 28.0666 93.6827C28.0366 93.6777 28.0068 93.6725 27.9771 93.6672C27.5514 93.5915 27.1548 93.492 26.7874 93.3687C26.1077 93.1406 25.5279 92.831 25.048 92.44C23.9387 91.4587 23.384 89.8587 23.384 87.64C23.384 84.9093 24.4933 82.264 26.712 79.704C28.5712 77.5641 30.8486 75.7704 33.5443 74.3227C34.1273 74.0096 34.7299 73.7127 35.352 73.432C38.8507 71.8107 42.3493 71 45.848 71C45.8694 71 45.8907 71 45.912 71.0001C46.5756 71.0015 47.2175 71.0254 47.8379 71.0716C50.3424 71.2584 52.4951 71.8106 54.296 72.728C56.5573 73.88 58.2213 75.416 59.288 77.336C60.3973 79.2133 60.952 81.304 60.952 83.608C60.952 86.3813 60.184 89.0907 58.648 91.736C57.1547 94.3813 55 96.5573 52.184 98.264C50.5446 99.2328 48.7605 99.9195 46.8319 100.324C45.5653 100.59 44.2364 100.734 42.8451 100.757C42.7159 100.759 42.5862 100.76 42.456 100.76H42.136L38.232 119H29.016L37.72 78.296L47.192 77.016L42.648 98.392C43.7696 98.2985 44.84 97.9875 45.8593 97.4589C45.8796 97.4484 45.8999 97.4378 45.9202 97.4271C46.74 96.9941 47.5266 96.4197 48.28 95.704C50.0293 94.0827 51.3947 92.0773 52.376 89.688C53.3573 87.2987 53.848 84.952 53.848 82.648C53.848 80.088 53.1867 77.9973 51.864 76.376C50.941 75.2446 49.696 74.508 48.129 74.1661C47.9351 74.1238 47.7363 74.0875 47.5325 74.0573C47.4295 74.042 47.3251 74.0283 47.2196 74.0161C46.8033 73.968 46.3675 73.944 45.912 73.944C45.8906 73.944 45.8693 73.944 45.848 73.9441C43.0103 73.9502 40.5098 74.3635 38.3466 75.1841ZM49.889 78.7569C50.4815 79.6895 50.848 80.9351 50.848 82.648C50.848 84.5164 50.4517 86.4768 49.6009 88.5482C48.9036 90.2461 47.9971 91.6706 46.8922 92.8545L49.889 78.7569ZM33.624 83.1044L32.3394 89.1117C32.3823 86.7012 32.8308 84.7252 33.624 83.1044ZM30.6926 96.8129C30.5425 96.836 30.3886 96.848 30.232 96.848C27.5977 96.848 25.0651 96.3237 23.153 94.7657C23.1216 94.7401 23.0906 94.7139 23.0603 94.687C21.0426 92.9021 20.384 90.2866 20.384 87.64C20.384 84.0259 21.8715 80.7086 24.4449 77.7392L24.4474 77.7364C27.0205 74.7749 30.2618 72.4396 34.1043 70.7037C37.9531 68.9223 41.8756 68 45.848 68C49.5431 68 52.8595 68.6293 55.6578 70.0549C58.3534 71.4281 60.4908 73.3418 61.8908 75.8438C63.2754 78.201 63.952 80.8122 63.952 83.608C63.952 85.6324 63.6114 87.6088 62.9517 89.5291C63.3653 89.0669 63.7976 88.6174 64.2484 88.1808C67.5015 84.9847 71.6039 83.424 76.3275 83.424C79.7203 83.424 82.7401 84.5174 84.8141 87.1099C86.2049 88.8484 86.9797 91.03 87.3155 93.475C87.4596 93.4362 87.6079 93.3934 87.7605 93.3465L89.7418 84.0093C90.0359 82.6233 91.2596 81.632 92.6765 81.632H101.893C102.798 81.632 103.655 82.041 104.225 82.7449C104.543 83.1385 104.753 83.6008 104.843 84.0867C105.967 83.8159 107.14 83.68 108.356 83.68C111.478 83.68 114.237 84.7479 116.291 87.0512C117.573 88.488 118.35 90.316 118.767 92.3774C119.744 90.8809 120.874 89.4894 122.157 88.2067C125.369 84.9947 129.439 83.424 134.134 83.424C136.984 83.424 139.805 84.0173 141.715 85.9869C143.166 87.4469 143.971 89.2431 144.182 91.2293C144.99 90.1526 145.887 89.1359 146.874 88.1805C150.127 84.9846 154.229 83.424 158.952 83.424C162.345 83.424 165.365 84.5174 167.439 87.1099C168.83 88.8484 169.605 91.03 169.941 93.475C170.082 93.4369 170.227 93.395 170.377 93.3492L171.855 86.3778C172.149 84.9916 173.372 84 174.79 84H184.005C184.885 84 185.718 84.3855 186.287 85.0522C187.736 84.355 189.29 84 190.917 84C192.848 84 194.641 84.636 196.012 86.0318C196.421 84.8295 197.556 84 198.852 84H208.068C208.788 84 209.478 84.2586 210.016 84.7186C211.511 84.0796 213.126 83.744 214.852 83.744C217.595 83.744 220.121 84.5114 222.083 86.3428C224.178 88.2978 224.956 91.0453 224.956 93.976C224.956 95.4481 224.779 97.0309 224.453 98.7086L224.45 98.7244C224.137 100.287 223.697 102.176 223.135 104.381L223.133 104.39C222.8 105.678 222.489 106.944 222.198 108.188C222.016 109.077 221.927 109.722 221.896 110.163C222.012 110.155 222.099 110.145 222.163 110.135C223.091 109.648 224.217 109.678 225.124 110.234C226.121 110.846 226.672 111.981 226.535 113.143C226.216 115.857 225.177 118.281 223.134 120.003C221.265 121.615 218.999 122.384 216.516 122.384C213.644 122.384 210.953 121.489 209.188 119.136C207.694 117.143 207.052 114.743 207.052 112.152C207.052 111.028 207.185 109.835 207.424 108.588C207.639 107.427 207.855 106.306 208.07 105.228C208.078 105.19 208.086 105.153 208.095 105.116C208.329 104.141 208.506 103.425 208.616 103.029C208.946 101.58 209.256 100.153 209.546 98.747C209.769 97.6632 209.881 96.8415 209.918 96.2465C209.427 96.9053 208.948 97.8565 208.546 99.194L204.219 119.622C203.925 121.008 202.701 122 201.284 122H192.068C191.163 122 190.307 121.592 189.737 120.889C189.167 120.186 188.946 119.263 189.133 118.378L193.219 99.106C192.427 99.3552 191.587 99.472 190.725 99.472C189.508 99.472 187.677 99.2234 186.463 97.7061C186.395 97.6217 186.333 97.5338 186.275 97.4426C185.967 96.9593 185.729 96.4313 185.543 95.887C185.404 95.9959 185.247 96.1233 185.072 96.2712L180.157 119.618C179.865 121.006 178.64 122 177.221 122H168.005C167.101 122 166.244 121.592 165.675 120.889C165.105 120.186 164.883 119.263 165.071 118.378L166.202 113.04C164.73 115.604 162.883 117.728 160.628 119.332C157.926 121.255 154.913 122.256 151.656 122.256C147.985 122.256 144.708 121.305 142.182 119.072C141.531 118.497 140.976 117.855 140.508 117.158C136.601 120.55 132.069 122.384 126.902 122.384C123.239 122.384 119.967 121.436 117.503 119.152L117.474 119.126C116.107 117.825 115.187 116.217 114.626 114.402C113.823 115.643 112.9 116.804 111.859 117.883L111.841 117.902C108.846 120.951 104.937 122.384 100.421 122.384C99.2559 122.384 98.094 122.263 97.0062 121.968L94.5866 133.321C94.3453 134.453 93.4742 135.346 92.3482 135.614L82.6842 137.918C81.6835 138.157 80.6303 137.866 79.8938 137.148C79.1573 136.429 78.8403 135.384 79.0538 134.377L83.5841 113.028C82.1105 115.597 80.2611 117.725 78.0028 119.332C75.3011 121.255 72.2875 122.256 69.0315 122.256C65.3599 122.256 62.0835 121.305 59.5569 119.072C56.8399 116.671 55.7915 113.124 55.7915 109.144C55.7915 105.838 56.4705 102.287 57.7409 98.5211C57.8765 98.119 58.0206 97.7224 58.1731 97.3311C56.8855 98.6549 55.4035 99.8208 53.7389 100.83L53.7102 100.847C50.9564 102.474 47.8957 103.401 44.5802 103.674L41.1656 119.628C40.8694 121.011 39.6469 122 38.232 122H29.016C28.1103 122 27.253 121.591 26.6834 120.887C26.1138 120.182 25.8929 119.258 26.0823 118.373L30.6926 96.8129ZM81.9885 135L91.6525 132.696L94.9805 117.08C95.5253 118.014 96.4092 118.664 97.6323 119.03C98.4208 119.266 99.3502 119.384 100.421 119.384C104.26 119.384 107.354 118.189 109.701 115.8C111.514 113.92 112.92 111.748 113.918 109.282C113.928 109.257 113.938 109.233 113.948 109.208C114.229 108.506 114.477 107.781 114.693 107.032C115.493 104.212 115.967 101.42 116.115 98.6566C116.115 98.6466 116.116 98.6366 116.116 98.6266C116.135 98.2618 116.149 97.8976 116.157 97.5338C116.162 97.2863 116.165 97.039 116.165 96.792C116.165 93.208 115.461 90.6267 114.053 89.048C112.645 87.4693 110.746 86.68 108.356 86.68C106.942 86.68 105.616 86.9046 104.379 87.3538C103.415 87.704 102.505 88.1905 101.649 88.8136C101.384 89.0066 101.123 89.2128 100.868 89.432L101.893 84.632H92.6765L90.3507 95.5923C90.2634 95.6299 90.1756 95.6671 90.0875 95.704C89.9799 95.7465 89.8731 95.7878 89.767 95.8278C89.7596 95.8306 89.7523 95.8334 89.7449 95.8362C88.9631 96.1302 88.2212 96.3563 87.5191 96.5147C87.367 96.549 87.2168 96.5801 87.0684 96.6081C86.9605 96.6284 86.8535 96.647 86.7476 96.664C86.5915 96.689 86.4375 96.7103 86.2856 96.728C85.919 96.7707 85.565 96.792 85.2235 96.792C85.1854 96.792 85.1486 96.7917 85.1131 96.7912C84.8311 96.787 84.6332 96.7659 84.5195 96.728V96.664C84.5195 89.8373 81.7888 86.424 76.3275 86.424C72.3168 86.424 68.9888 87.7253 66.3435 90.328C63.6982 92.888 61.7782 95.9387 60.5835 99.48C59.3888 103.021 58.7915 106.243 58.7915 109.144C58.7915 112.643 59.7088 115.203 61.5435 116.824C63.3782 118.445 65.8742 119.256 69.0315 119.256C71.6342 119.256 74.0448 118.467 76.2635 116.888C78.4822 115.309 80.2955 113.069 81.7035 110.168C83.1115 107.267 83.9862 103.875 84.3275 99.992C84.6994 99.9311 85.0665 99.8639 85.4288 99.7901C85.7705 99.7206 86.1079 99.6453 86.4411 99.5644C87.5877 99.2856 88.6835 98.9391 89.7285 98.5248L81.9885 135ZM103.115 91.4668C102.991 91.5073 102.866 91.5547 102.741 91.609C102.44 91.7395 102.136 91.9099 101.828 92.12C101.723 92.1964 101.619 92.2769 101.516 92.3614C100.874 92.8903 100.296 93.5778 99.7805 94.424L96.0045 112.344C96.3458 113.325 97.1565 113.816 98.4365 113.816C100.484 113.816 102.17 112.856 103.493 110.936C104.858 109.016 105.839 106.733 106.437 104.088C107.076 101.4 107.396 98.904 107.396 96.6C107.396 93.0587 106.33 91.288 104.197 91.288C103.841 91.288 103.48 91.3476 103.115 91.4668ZM99.4289 110.643C99.9676 110.433 100.488 110.009 101.022 109.234C101.03 109.222 101.039 109.21 101.048 109.197C102.151 107.646 102.987 105.743 103.51 103.427L103.518 103.393C104.114 100.889 104.396 98.6291 104.396 96.6C104.396 95.8563 104.34 95.2875 104.255 94.8666C104.202 94.5999 104.142 94.4195 104.095 94.3043C103.994 94.3304 103.818 94.3982 103.555 94.574C103.257 94.795 102.933 95.1185 102.601 95.5899L99.4289 110.643ZM78.6315 91.16C78.2902 90.6053 77.6928 90.328 76.8395 90.328C75.4315 90.328 74.0662 91.352 72.7435 93.4C71.4208 95.448 70.3542 97.9013 69.5435 100.76C68.7328 103.619 68.3275 106.136 68.3275 108.312C68.3275 110.36 68.5622 111.747 69.0315 112.472C69.5008 113.155 70.3542 113.496 71.5915 113.496C72.6155 113.496 73.6395 112.92 74.6635 111.768C75.6875 110.573 76.5835 108.973 77.3515 106.968C78.1195 104.92 78.6742 102.659 79.0155 100.184C77.8635 99.928 77.2875 99.032 77.2875 97.496C77.2875 95.7467 77.9488 94.5947 79.2715 94.04C79.1862 92.632 78.9728 91.672 78.6315 91.16ZM74.325 96.6565C73.596 98.0741 72.9598 99.7092 72.4297 101.578C71.669 104.261 71.3275 106.493 71.3275 108.312C71.3275 109.237 71.3816 109.916 71.4614 110.387C71.4679 110.425 71.4743 110.461 71.4806 110.494C71.5042 110.495 71.5291 110.496 71.5551 110.496C71.6314 110.47 71.9135 110.342 72.4034 109.795C73.1316 108.939 73.866 107.679 74.5463 105.905C75.0342 104.602 75.4323 103.181 75.7344 101.637C75.5392 101.427 75.3588 101.196 75.196 100.942C74.488 99.8411 74.2875 98.5979 74.2875 97.496C74.2875 97.2176 74.2993 96.9371 74.325 96.6565ZM71.534 110.501C71.5339 110.501 71.5377 110.5 71.5453 110.499C71.5378 110.501 71.534 110.502 71.534 110.501ZM116.927 109.822C117.025 113.01 117.897 115.387 119.542 116.952C121.291 118.573 123.745 119.384 126.902 119.384C131.181 119.384 135.038 117.908 138.471 114.956C138.481 114.947 138.492 114.938 138.502 114.929C138.511 114.921 138.52 114.914 138.529 114.906C138.74 114.723 138.95 114.534 139.158 114.34C140 113.554 140.817 112.676 141.606 111.707C141.645 111.946 141.689 112.179 141.739 112.407C141.954 113.386 142.277 114.255 142.708 115.013C143.104 115.71 143.591 116.313 144.169 116.824C146.003 118.445 148.499 119.256 151.656 119.256C154.259 119.256 156.67 118.467 158.889 116.888C161.107 115.309 162.921 113.069 164.329 110.168C165.736 107.267 166.611 103.875 166.952 99.992C167.324 99.9311 167.692 99.8639 168.054 99.7901C168.393 99.7211 168.728 99.6464 169.059 99.5661C170.205 99.2878 171.301 98.9417 172.346 98.528L168.005 119H177.221L182.342 94.68C182.627 94.4191 182.897 94.1818 183.15 93.9679C183.766 93.4473 184.286 93.066 184.71 92.824C184.732 92.8107 184.754 92.7976 184.777 92.7848C185.207 92.5387 185.694 92.3773 186.238 92.3004C186.485 92.2655 186.743 92.248 187.014 92.248C187.355 92.248 187.59 92.376 187.717 92.632C187.846 92.888 187.973 93.2933 188.102 93.848C188.272 94.7013 188.507 95.3627 188.805 95.832C189.147 96.2587 189.787 96.472 190.725 96.472C192.144 96.472 193.256 96.0235 194.063 95.1264C194.081 95.1058 194.099 95.085 194.117 95.064C194.928 94.1253 195.333 93.0373 195.333 91.8C195.333 91.2299 195.258 90.6955 195.108 90.1968C194.909 89.5384 194.579 88.9421 194.117 88.408C193.35 87.4693 192.283 87 190.917 87C189.552 87 188.272 87.3413 187.077 88.024C186.994 88.0736 186.909 88.1249 186.824 88.1777C186.229 88.5454 185.597 88.9896 184.926 89.5105C184.465 89.8679 183.987 90.2614 183.491 90.6909C183.477 90.7025 183.464 90.7141 183.451 90.7257C183.359 90.8052 183.266 90.886 183.174 90.968L184.005 87H174.79L172.967 95.596C172.883 95.6323 172.798 95.6683 172.712 95.704C172.605 95.7465 172.498 95.7878 172.392 95.8278C172.385 95.8306 172.377 95.8334 172.37 95.8362C171.588 96.1302 170.846 96.3563 170.144 96.5147C169.989 96.5496 169.836 96.5812 169.686 96.6095C169.58 96.6293 169.476 96.6475 169.373 96.664C169.216 96.689 169.062 96.7103 168.911 96.728C168.544 96.7707 168.19 96.792 167.848 96.792C167.81 96.792 167.774 96.7917 167.738 96.7912C167.456 96.787 167.258 96.7659 167.145 96.728V96.664C167.145 89.8373 164.414 86.424 158.952 86.424C154.942 86.424 151.614 87.7253 148.969 90.328C146.323 92.888 144.403 95.9387 143.209 99.48C142.608 101.261 142.158 102.961 141.859 104.581C141.732 105.27 141.632 105.944 141.56 106.604C141.552 106.68 141.544 106.756 141.536 106.832C141.479 107.404 141.442 107.964 141.426 108.514C141.219 108.731 141.014 108.941 140.81 109.144C140.02 109.934 139.257 110.627 138.519 111.222C137.96 111.673 137.415 112.069 136.886 112.408C136.82 112.452 136.753 112.494 136.685 112.536C135.104 113.517 133.208 114.008 130.998 114.008C129.377 114.008 128.203 113.645 127.478 112.92C126.753 112.152 126.39 110.723 126.39 108.632C126.39 106.243 126.795 103.555 127.606 100.568C128.417 97.5813 129.462 95.0427 130.742 92.952C132.022 90.8613 133.302 89.816 134.582 89.816C135.179 89.816 135.627 90.0507 135.926 90.52C136.225 90.9893 136.374 91.6293 136.374 92.44C136.374 93.5493 136.118 94.808 135.606 96.216C136.326 96.696 137.027 96.951 137.71 96.981C137.755 96.983 137.801 96.984 137.846 96.984C138.089 96.984 138.321 96.9592 138.543 96.9096C139.218 96.7587 139.796 96.3782 140.278 95.768C140.918 94.9573 141.238 93.8053 141.238 92.312C141.238 90.6053 140.683 89.1973 139.574 88.088C138.507 86.9787 136.694 86.424 134.134 86.424C130.166 86.424 126.881 87.7253 124.278 90.328C122.047 92.5589 120.335 95.1625 119.141 98.1387C118.964 98.5777 118.8 99.0248 118.646 99.48C117.69 102.418 117.131 105.151 116.968 107.678C116.968 107.681 116.968 107.683 116.968 107.686C116.935 108.202 116.918 108.709 116.918 109.208C116.918 109.416 116.921 109.621 116.927 109.822ZM129.662 110.824C129.693 110.838 129.734 110.853 129.788 110.87C130.013 110.939 130.398 111.008 130.998 111.008C132.827 111.008 134.191 110.59 135.237 109.902L135.267 109.882C136.218 109.273 137.293 108.397 138.49 107.219C138.674 104.794 139.194 102.247 140.02 99.5893C139.349 99.8472 138.621 99.984 137.846 99.984C136.386 99.984 135.069 99.4635 133.942 98.7122C132.926 98.035 132.435 96.8225 132.659 95.6534C131.831 97.2393 131.105 99.1306 130.501 101.354C129.741 104.155 129.39 106.573 129.39 108.632C129.39 109.523 129.469 110.138 129.57 110.534C129.605 110.671 129.637 110.764 129.662 110.824ZM192.068 119H201.284L205.636 98.456C206.148 96.7067 206.831 95.2987 207.684 94.232C208.537 93.1227 209.519 92.568 210.628 92.568C212.164 92.568 212.932 93.656 212.932 95.832C212.932 96.728 212.783 97.9013 212.484 99.352C212.185 100.803 211.865 102.275 211.524 103.768C211.439 104.067 211.268 104.749 211.012 105.816C210.799 106.883 210.585 107.992 210.372 109.144C210.159 110.253 210.052 111.256 210.052 112.152C210.052 114.243 210.564 115.971 211.588 117.336C212.612 118.701 214.255 119.384 216.516 119.384C218.351 119.384 219.908 118.829 221.188 117.72C221.717 117.276 222.161 116.747 222.52 116.132C223.057 115.21 223.402 114.097 223.556 112.792C223.172 113.048 222.468 113.176 221.444 113.176C221.081 113.176 220.759 113.141 220.479 113.071C220.035 112.959 219.695 112.76 219.46 112.472C219.076 112.003 218.884 111.341 218.884 110.488C218.884 109.763 219.012 108.781 219.268 107.544C219.567 106.264 219.887 104.963 220.228 103.64C220.783 101.464 221.209 99.6293 221.508 98.136C221.807 96.6 221.956 95.2133 221.956 93.976C221.956 91.544 221.316 89.7307 220.036 88.536C218.756 87.3413 217.028 86.744 214.852 86.744C213.491 86.744 212.212 87.0147 211.016 87.5562C210.982 87.5714 210.949 87.5868 210.916 87.6024C209.908 88.0731 208.958 88.7375 208.068 89.5956C207.933 89.7259 207.799 89.8607 207.666 90C207.565 90.1067 207.464 90.216 207.364 90.328L208.068 87H198.852L192.068 119ZM156.95 96.6564C156.221 98.0741 155.585 99.7092 155.055 101.578C154.294 104.261 153.952 106.493 153.952 108.312C153.952 109.237 154.007 109.916 154.086 110.387C154.093 110.425 154.099 110.461 154.106 110.494C154.129 110.495 154.154 110.496 154.18 110.496C154.256 110.47 154.538 110.342 155.028 109.795C155.756 108.939 156.491 107.679 157.171 105.905C157.659 104.602 158.057 103.181 158.359 101.637C158.164 101.427 157.984 101.196 157.821 100.942C157.113 99.8411 156.913 98.5979 156.913 97.496C156.913 97.2176 156.924 96.9371 156.95 96.6564ZM161.641 100.184C161.299 102.659 160.745 104.92 159.977 106.968C159.208 108.973 158.312 110.573 157.288 111.768C156.264 112.92 155.24 113.496 154.217 113.496C152.979 113.496 152.126 113.155 151.656 112.472C151.187 111.747 150.952 110.36 150.952 108.312C150.952 106.136 151.358 103.619 152.169 100.76C152.979 97.9013 154.046 95.448 155.368 93.4C156.691 91.352 158.057 90.328 159.465 90.328C160.318 90.328 160.915 90.6053 161.257 91.16C161.598 91.672 161.811 92.632 161.896 94.04C160.574 94.5947 159.913 95.7467 159.913 97.496C159.913 99.032 160.488 99.928 161.641 100.184ZM154.159 110.501C154.159 110.501 154.163 110.5 154.17 110.499C154.163 110.501 154.159 110.502 154.159 110.501Z" fill="#443152"/>
</g>
<defs>
<filter id="filter0_d_1_155" x="3.384" y="16" width="168.78" height="64" filterUnits="userSpaceOnUse" color-interpolation-filters="sRGB">
<feFlood flood-opacity="0" result="BackgroundImageFix"/>
<feColorMatrix in="SourceAlpha" type="matrix" values="0 0 0 0 0 0 0 0 0 0 0 0 0 0 0 0 0 0 127 0" result="hardAlpha"/>
<feOffset/>
<feComposite in2="hardAlpha" operator="out"/>
<feColorMatrix type="matrix" values="0 0 0 0 0.266667 0 0 0 0 0.192157 0 0 0 0 0.321569 0 0 0 1 0"/>
<feBlend mode="normal" in2="BackgroundImageFix" result="effect1_dropShadow_1_155"/>
<feBlend mode="normal" in="SourceGraphic" in2="effect1_dropShadow_1_155" result="shape"/>
</filter>
<filter id="filter1_d_1_155" x="0.384003" y="13" width="174.78" height="70" filterUnits="userSpaceOnUse" color-interpolation-filters="sRGB">
<feFlood flood-opacity="0" result="BackgroundImageFix"/>
<feColorMatrix in="SourceAlpha" type="matrix" values="0 0 0 0 0 0 0 0 0 0 0 0 0 0 0 0 0 0 127 0" result="hardAlpha"/>
<feOffset/>
<feComposite in2="hardAlpha" operator="out"/>
<feColorMatrix type="matrix" values="0 0 0 0 0.266667 0 0 0 0 0.192157 0 0 0 0 0.321569 0 0 0 1 0"/>
<feBlend mode="normal" in2="BackgroundImageFix" result="effect1_dropShadow_1_155"/>
<feBlend mode="normal" in="SourceGraphic" in2="effect1_dropShadow_1_155" result="shape"/>
</filter>
<filter id="filter2_d_1_155" x="23.384" y="71" width="200.172" height="64" filterUnits="userSpaceOnUse" color-interpolation-filters="sRGB">
<feFlood flood-opacity="0" result="BackgroundImageFix"/>
<feColorMatrix in="SourceAlpha" type="matrix" values="0 0 0 0 0 0 0 0 0 0 0 0 0 0 0 0 0 0 127 0" result="hardAlpha"/>
<feOffset/>
<feComposite in2="hardAlpha" operator="out"/>
<feColorMatrix type="matrix" values="0 0 0 0 0.266667 0 0 0 0 0.192157 0 0 0 0 0.321569 0 0 0 1 0"/>
<feBlend mode="normal" in2="BackgroundImageFix" result="effect1_dropShadow_1_155"/>
<feBlend mode="normal" in="SourceGraphic" in2="effect1_dropShadow_1_155" result="shape"/>
</filter>
<filter id="filter3_d_1_155" x="20.384" y="68" width="206.172" height="70.0001" filterUnits="userSpaceOnUse" color-interpolation-filters="sRGB">
<feFlood flood-opacity="0" result="BackgroundImageFix"/>
<feColorMatrix in="SourceAlpha" type="matrix" values="0 0 0 0 0 0 0 0 0 0 0 0 0 0 0 0 0 0 127 0" result="hardAlpha"/>
<feOffset/>
<feComposite in2="hardAlpha" operator="out"/>
<feColorMatrix type="matrix" values="0 0 0 0 0.266667 0 0 0 0 0.192157 0 0 0 0 0.321569 0 0 0 1 0"/>
<feBlend mode="normal" in2="BackgroundImageFix" result="effect1_dropShadow_1_155"/>
<feBlend mode="normal" in="SourceGraphic" in2="effect1_dropShadow_1_155" result="shape"/>
</filter>
</defs>
</svg>
